REM DIRINDEX 1\2\4\8,1\2\4\9,1\2\4\10,1\2\5\11,1\2\5\12,1\2\5\13,1\2\5\14,1\2\5\15,1\3\6\16,1\3\6\17,1\3\6\18,1\3\7\19,1\3\7\20,1\3\7\21,1\3\7\22,1\3\7\23
REM DIRNAME "folder01","folder02","folder03","folder04","folder05","folder06","folder07","folder08","folder09","folder10","folder11","folder12","folder13","folder14","folder15","folder16","folder17","folder18","folder19","folder20","folder21","folder22","folder23"
TITLE ""
FILE "LR_black_phrase_E_B03.mp3" MP3
  TRACK 01 AUDIO
    TITLE "0:"
    INDEX 01 00:00:00
  TRACK 02 AUDIO
    TITLE "16:cjc171_09081"
    INDEX 01 00:00:14
  TRACK 03 AUDIO
    TITLE "0:"
    INDEX 01 00:01:37
  TRACK 04 AUDIO
    TITLE "17:cjc171_09082"
    INDEX 01 00:01:67
  TRACK 05 AUDIO
    TITLE "0:"
    INDEX 01 00:04:32
  TRACK 06 AUDIO
    TITLE "18:cjc171_09083"
    INDEX 01 00:05:11
  TRACK 07 AUDIO
    TITLE "0:"
    INDEX 01 00:07:51
  TRACK 08 AUDIO
    TITLE "16:cjc171_09084"
    INDEX 01 00:08:59
  TRACK 09 AUDIO
    TITLE "0:"
    INDEX 01 00:10:20
  TRACK 10 AUDIO
    TITLE "17:cjc171_09085"
    INDEX 01 00:10:50
  TRACK 11 AUDIO
    TITLE "0:"
    INDEX 01 00:12:62
  TRACK 12 AUDIO
    TITLE "18:cjc171_09086"
    INDEX 01 00:13:44
  TRACK 13 AUDIO
    TITLE "0:"
    INDEX 01 00:15:57
  TRACK 14 AUDIO
    TITLE "16:cjc171_09087"
    INDEX 01 00:16:68
  TRACK 15 AUDIO
    TITLE "0:"
    INDEX 01 00:18:04
  TRACK 16 AUDIO
    TITLE "17:cjc171_09088"
    INDEX 01 00:18:36
  TRACK 17 AUDIO
    TITLE "0:"
    INDEX 01 00:20:40
  TRACK 18 AUDIO
    TITLE "18:cjc171_09089"
    INDEX 01 00:21:20
  TRACK 19 AUDIO
    TITLE "0:"
    INDEX 01 00:23:25
  TRACK 20 AUDIO
    TITLE "16:cjc171_09090"
    INDEX 01 00:24:30
  TRACK 21 AUDIO
    TITLE "0:"
    INDEX 01 00:25:47
  TRACK 22 AUDIO
    TITLE "17:cjc171_09091"
    INDEX 01 00:26:02
  TRACK 23 AUDIO
    TITLE "0:"
    INDEX 01 00:28:16
  TRACK 24 AUDIO
    TITLE "18:cjc171_09092"
    INDEX 01 00:28:69
  TRACK 25 AUDIO
    TITLE "0:"
    INDEX 01 00:31:09
  TRACK 26 AUDIO
    TITLE "16:cjc171_09093"
    INDEX 01 00:32:06
  TRACK 27 AUDIO
    TITLE "0:"
    INDEX 01 00:33:33
  TRACK 28 AUDIO
    TITLE "17:cjc171_09094"
    INDEX 01 00:33:63
  TRACK 29 AUDIO
    TITLE "0:"
    INDEX 01 00:36:39
  TRACK 30 AUDIO
    TITLE "18:cjc171_09095"
    INDEX 01 00:37:09
  TRACK 31 AUDIO
    TITLE "0:"
    INDEX 01 00:39:61
  TRACK 32 AUDIO
    TITLE "16:cjc171_09096"
    INDEX 01 00:40:57
  TRACK 33 AUDIO
    TITLE "0:"
    INDEX 01 00:42:09
  TRACK 34 AUDIO
    TITLE "17:cjc171_09097"
    INDEX 01 00:42:42
  TRACK 35 AUDIO
    TITLE "0:"
    INDEX 01 00:44:23
  TRACK 36 AUDIO
    TITLE "18:cjc171_09098"
    INDEX 01 00:44:66
  TRACK 37 AUDIO
    TITLE "0:"
    INDEX 01 00:46:48
  TRACK 38 AUDIO
    TITLE "16:cjc171_09099"
    INDEX 01 00:47:47
  TRACK 39 AUDIO
    TITLE "0:"
    INDEX 01 00:48:64
  TRACK 40 AUDIO
    TITLE "17:cjc171_09100"
    INDEX 01 00:49:17
  TRACK 41 AUDIO
    TITLE "0:"
    INDEX 01 00:51:31
  TRACK 42 AUDIO
    TITLE "18:cjc171_09101"
    INDEX 01 00:52:09
  TRACK 43 AUDIO
    TITLE "0:"
    INDEX 01 00:54:24
  TRACK 44 AUDIO
    TITLE "16:cjc171_09102"
    INDEX 01 00:55:27
  TRACK 45 AUDIO
    TITLE "0:"
    INDEX 01 00:56:50
  TRACK 46 AUDIO
    TITLE "17:cjc171_09103"
    INDEX 01 00:57:04
  TRACK 47 AUDIO
    TITLE "0:"
    INDEX 01 00:59:27
  TRACK 48 AUDIO
    TITLE "18:cjc171_09104"
    INDEX 01 01:00:05
  TRACK 49 AUDIO
    TITLE "0:"
    INDEX 01 01:02:25
  TRACK 50 AUDIO
    TITLE "16:cjc171_09105"
    INDEX 01 01:03:30
  TRACK 51 AUDIO
    TITLE "0:"
    INDEX 01 01:04:44
  TRACK 52 AUDIO
    TITLE "17:cjc171_09106"
    INDEX 01 01:04:73
  TRACK 53 AUDIO
    TITLE "0:"
    INDEX 01 01:06:62
  TRACK 54 AUDIO
    TITLE "18:cjc171_09107"
    INDEX 01 01:07:42
  TRACK 55 AUDIO
    TITLE "0:"
    INDEX 01 01:09:33
  TRACK 56 AUDIO
    TITLE "16:cjc171_09108"
    INDEX 01 01:10:34
  TRACK 57 AUDIO
    TITLE "0:"
    INDEX 01 01:11:48
  TRACK 58 AUDIO
    TITLE "17:cjc171_09109"
    INDEX 01 01:11:75
  TRACK 59 AUDIO
    TITLE "0:"
    INDEX 01 01:15:12
  TRACK 60 AUDIO
    TITLE "18:cjc171_09110"
    INDEX 01 01:15:59
  TRACK 61 AUDIO
    TITLE "0:"
    INDEX 01 01:18:69
  TRACK 62 AUDIO
    TITLE "16:cjc171_09111"
    INDEX 01 01:19:71
  TRACK 63 AUDIO
    TITLE "0:"
    INDEX 01 01:20:72
  TRACK 64 AUDIO
    TITLE "17:cjc171_09112"
    INDEX 01 01:21:26
  TRACK 65 AUDIO
    TITLE "0:"
    INDEX 01 01:23:57
  TRACK 66 AUDIO
    TITLE "18:cjc171_09113"
    INDEX 01 01:24:33
  TRACK 67 AUDIO
    TITLE "0:"
    INDEX 01 01:26:63
  TRACK 68 AUDIO
    TITLE "16:cjc171_09114"
    INDEX 01 01:27:62
  TRACK 69 AUDIO
    TITLE "0:"
    INDEX 01 01:29:20
  TRACK 70 AUDIO
    TITLE "17:cjc171_09115"
    INDEX 01 01:29:49
  TRACK 71 AUDIO
    TITLE "0:"
    INDEX 01 01:32:12
  TRACK 72 AUDIO
    TITLE "18:cjc171_09116"
    INDEX 01 01:32:61
  TRACK 73 AUDIO
    TITLE "0:"
    INDEX 01 01:35:23
  TRACK 74 AUDIO
    TITLE "16:cjc171_09117"
    INDEX 01 01:36:24
  TRACK 75 AUDIO
    TITLE "0:"
    INDEX 01 01:37:37
  TRACK 76 AUDIO
    TITLE "17:cjc171_09118"
    INDEX 01 01:37:67
  TRACK 77 AUDIO
    TITLE "0:"
    INDEX 01 01:39:48
  TRACK 78 AUDIO
    TITLE "18:cjc171_09119"
    INDEX 01 01:40:28
  TRACK 79 AUDIO
    TITLE "0:"
    INDEX 01 01:42:07
  TRACK 80 AUDIO
    TITLE "16:cjc171_09120"
    INDEX 01 01:43:12
  TRACK 81 AUDIO
    TITLE "0:"
    INDEX 01 01:44:29
  TRACK 82 AUDIO
    TITLE "17:cjc171_09121"
    INDEX 01 01:44:57
  TRACK 83 AUDIO
    TITLE "0:"
    INDEX 01 01:47:16
  TRACK 84 AUDIO
    TITLE "18:cjc171_09122"
    INDEX 01 01:47:73
  TRACK 85 AUDIO
    TITLE "0:"
    INDEX 01 01:50:34
  TRACK 86 AUDIO
    TITLE "16:cjc171_09123"
    INDEX 01 01:51:37
  TRACK 87 AUDIO
    TITLE "0:"
    INDEX 01 01:52:43
  TRACK 88 AUDIO
    TITLE "17:cjc171_09124"
    INDEX 01 01:52:72
  TRACK 89 AUDIO
    TITLE "0:"
    INDEX 01 01:54:53
  TRACK 90 AUDIO
    TITLE "18:cjc171_09125"
    INDEX 01 01:55:33
  TRACK 91 AUDIO
    TITLE "0:"
    INDEX 01 01:57:14
  TRACK 92 AUDIO
    TITLE "16:cjc171_09126"
    INDEX 01 01:58:12
  TRACK 93 AUDIO
    TITLE "0:"
    INDEX 01 01:59:45
  TRACK 94 AUDIO
    TITLE "17:cjc171_09127"
    INDEX 01 02:00:01
  TRACK 95 AUDIO
    TITLE "0:"
    INDEX 01 02:02:35
  TRACK 96 AUDIO
    TITLE "18:cjc171_09128"
    INDEX 01 02:03:17
  TRACK 97 AUDIO
    TITLE "0:"
    INDEX 01 02:05:53
  TRACK 98 AUDIO
    TITLE "16:cjc171_09129"
    INDEX 01 02:06:60
  TRACK 99 AUDIO
    TITLE "0:"
    INDEX 01 02:07:72
  TRACK 100 AUDIO
    TITLE "17:cjc171_09130"
    INDEX 01 02:08:20
  TRACK 101 AUDIO
    TITLE "0:"
    INDEX 01 02:10:64
  TRACK 102 AUDIO
    TITLE "18:cjc171_09131"
    INDEX 01 02:11:40
  TRACK 103 AUDIO
    TITLE "0:"
    INDEX 01 02:14:09
  TRACK 104 AUDIO
    TITLE "16:cjc171_09132"
    INDEX 01 02:15:06
  TRACK 105 AUDIO
    TITLE "0:"
    INDEX 01 02:16:37
  TRACK 106 AUDIO
    TITLE "17:cjc171_09133"
    INDEX 01 02:16:67
  TRACK 107 AUDIO
    TITLE "0:"
    INDEX 01 02:18:62
  TRACK 108 AUDIO
    TITLE "18:cjc171_09134"
    INDEX 01 02:19:40
  TRACK 109 AUDIO
    TITLE "0:"
    INDEX 01 02:21:34
  TRACK 110 AUDIO
    TITLE "16:cjc171_09135"
    INDEX 01 02:22:42
  TRACK 111 AUDIO
    TITLE "0:"
    INDEX 01 02:23:65
  TRACK 112 AUDIO
    TITLE "17:cjc171_09136"
    INDEX 01 02:24:17
  TRACK 113 AUDIO
    TITLE "0:"
    INDEX 01 02:26:34
  TRACK 114 AUDIO
    TITLE "18:cjc171_09137"
    INDEX 01 02:27:12
  TRACK 115 AUDIO
    TITLE "0:"
    INDEX 01 02:29:28
  TRACK 116 AUDIO
    TITLE "16:cjc171_09138"
    INDEX 01 02:30:31
  TRACK 117 AUDIO
    TITLE "0:"
    INDEX 01 02:31:51
  TRACK 118 AUDIO
    TITLE "17:cjc171_09139"
    INDEX 01 02:32:05
  TRACK 119 AUDIO
    TITLE "0:"
    INDEX 01 02:33:63
  TRACK 120 AUDIO
    TITLE "18:cjc171_09140"
    INDEX 01 02:34:43
  TRACK 121 AUDIO
    TITLE "0:"
    INDEX 01 02:36:26
  TRACK 122 AUDIO
    TITLE "16:cjc171_09141"
    INDEX 01 02:37:30
  TRACK 123 AUDIO
    TITLE "0:"
    INDEX 01 02:38:43
  TRACK 124 AUDIO
    TITLE "17:cjc171_09142"
    INDEX 01 02:38:72
  TRACK 125 AUDIO
    TITLE "0:"
    INDEX 01 02:41:25
  TRACK 126 AUDIO
    TITLE "18:cjc171_09143"
    INDEX 01 02:42:05
  TRACK 127 AUDIO
    TITLE "0:"
    INDEX 01 02:44:32
  TRACK 128 AUDIO
    TITLE "16:cjc171_09144"
    INDEX 01 02:45:31
  TRACK 129 AUDIO
    TITLE "0:"
    INDEX 01 02:46:48
  TRACK 130 AUDIO
    TITLE "17:cjc171_09145"
    INDEX 01 02:46:70
  TRACK 131 AUDIO
    TITLE "0:"
    INDEX 01 02:49:17
  TRACK 132 AUDIO
    TITLE "18:cjc171_09146"
    INDEX 01 02:49:62
  TRACK 133 AUDIO
    TITLE "0:"
    INDEX 01 02:52:10
  TRACK 134 AUDIO
    TITLE "16:cjc171_09147"
    INDEX 01 02:53:05
  TRACK 135 AUDIO
    TITLE "0:"
    INDEX 01 02:54:26
  TRACK 136 AUDIO
    TITLE "17:cjc171_09148"
    INDEX 01 02:54:52
  TRACK 137 AUDIO
    TITLE "0:"
    INDEX 01 02:56:74
  TRACK 138 AUDIO
    TITLE "18:cjc171_09149"
    INDEX 01 02:57:42
  TRACK 139 AUDIO
    TITLE "0:"
    INDEX 01 02:59:63
  TRACK 140 AUDIO
    TITLE "16:cjc171_09150"
    INDEX 01 03:00:58
  TRACK 141 AUDIO
    TITLE "0:"
    INDEX 01 03:01:75
  TRACK 142 AUDIO
    TITLE "17:cjc171_09151"
    INDEX 01 03:02:20
  TRACK 143 AUDIO
    TITLE "0:"
    INDEX 01 03:04:13
  TRACK 144 AUDIO
    TITLE "18:cjc171_09152"
    INDEX 01 03:04:58
  TRACK 145 AUDIO
    TITLE "0:"
    INDEX 01 03:06:51
  TRACK 146 AUDIO
    TITLE "16:cjc171_09153"
    INDEX 01 03:07:50
  TRACK 147 AUDIO
    TITLE "0:"
    INDEX 01 03:08:67
  TRACK 148 AUDIO
    TITLE "17:cjc171_09154"
    INDEX 01 03:09:22
  TRACK 149 AUDIO
    TITLE "0:"
    INDEX 01 03:11:50
  TRACK 150 AUDIO
    TITLE "18:cjc171_09155"
    INDEX 01 03:12:30
  TRACK 151 AUDIO
    TITLE "0:"
    INDEX 01 03:14:58
  TRACK 152 AUDIO
    TITLE "16:cjc171_09156"
    INDEX 01 03:15:64
  TRACK 153 AUDIO
    TITLE "0:"
    INDEX 01 03:17:06
  TRACK 154 AUDIO
    TITLE "17:cjc171_09157"
    INDEX 01 03:17:25
  TRACK 155 AUDIO
    TITLE "0:"
    INDEX 01 03:18:72
  TRACK 156 AUDIO
    TITLE "18:cjc171_09158"
    INDEX 01 03:19:44
  TRACK 157 AUDIO
    TITLE "0:"
    INDEX 01 03:21:13
  TRACK 158 AUDIO
    TITLE "16:cjc171_09159"
    INDEX 01 03:22:20
  TRACK 159 AUDIO
    TITLE "0:"
    INDEX 01 03:23:30
  TRACK 160 AUDIO
    TITLE "17:cjc171_09160"
    INDEX 01 03:23:59
  TRACK 161 AUDIO
    TITLE "0:"
    INDEX 01 03:25:52
  TRACK 162 AUDIO
    TITLE "18:cjc171_09161"
    INDEX 01 03:26:32
  TRACK 163 AUDIO
    TITLE "0:"
    INDEX 01 03:28:25
  TRACK 164 AUDIO
    TITLE "16:cjc171_09162"
    INDEX 01 03:29:24
  TRACK 165 AUDIO
    TITLE "0:"
    INDEX 01 03:30:47
  TRACK 166 AUDIO
    TITLE "17:cjc171_09163"
    INDEX 01 03:30:67
  TRACK 167 AUDIO
    TITLE "0:"
    INDEX 01 03:33:36
  TRACK 168 AUDIO
    TITLE "18:cjc171_09164"
    INDEX 01 03:34:04
  TRACK 169 AUDIO
    TITLE "0:"
    INDEX 01 03:36:48
  TRACK 170 AUDIO
    TITLE "16:cjc171_09165"
    INDEX 01 03:37:42
  TRACK 171 AUDIO
    TITLE "0:"
    INDEX 01 03:38:63
  TRACK 172 AUDIO
    TITLE "17:cjc171_09166"
    INDEX 01 03:39:13
  TRACK 173 AUDIO
    TITLE "0:"
    INDEX 01 03:41:55
  TRACK 174 AUDIO
    TITLE "18:cjc171_09167"
    INDEX 01 03:42:27
  TRACK 175 AUDIO
    TITLE "0:"
    INDEX 01 03:44:69
  TRACK 176 AUDIO
    TITLE "16:cjc171_09168"
    INDEX 01 03:45:65
  TRACK 177 AUDIO
    TITLE "0:"
    INDEX 01 03:47:03
  TRACK 178 AUDIO
    TITLE "17:cjc171_09169"
    INDEX 01 03:47:22
  TRACK 179 AUDIO
    TITLE "0:"
    INDEX 01 03:49:11
  TRACK 180 AUDIO
    TITLE "18:cjc171_09170"
    INDEX 01 03:49:57
  TRACK 181 AUDIO
    TITLE "0:"
    INDEX 01 03:51:46
